<mxfile host="app.diagrams.net" modified="2022-09-03T11:07:57.758Z" agent="5.0 (Windows NT 10.0; Win64; x64) AppleWebKit/537.36 (KHTML, like Gecko) Chrome/104.0.0.0 Safari/537.36" etag="c2UKCzIbd2BXoyayAX0x" version="20.2.8" type="github">
  <diagram id="ysp8k5KHIYGQWbJfsFlV" name="Page-1">
    <mxGraphModel dx="1000" dy="623" grid="1" gridSize="10" guides="1" tooltips="1" connect="1" arrows="1" fold="1" page="1" pageScale="1" pageWidth="827" pageHeight="1169" math="0" shadow="0">
      <root>
        <mxCell id="0" />
        <mxCell id="1" parent="0" />
        <mxCell id="52B8nRNnoJWXbUQNNZEJ-1" value="LoadedTodoList" style="ellipse;whiteSpace=wrap;html=1;" vertex="1" parent="1">
          <mxGeometry x="500" y="30" width="120" height="80" as="geometry" />
        </mxCell>
        <mxCell id="52B8nRNnoJWXbUQNNZEJ-3" value="" style="endArrow=classic;html=1;rounded=0;exitX=0;exitY=1;exitDx=0;exitDy=0;" edge="1" parent="1" source="52B8nRNnoJWXbUQNNZEJ-1" target="52B8nRNnoJWXbUQNNZEJ-4">
          <mxGeometry width="50" height="50" relative="1" as="geometry">
            <mxPoint x="390" y="350" as="sourcePoint" />
            <mxPoint x="320" y="180" as="targetPoint" />
          </mxGeometry>
        </mxCell>
        <mxCell id="52B8nRNnoJWXbUQNNZEJ-4" value="ChangeTodoList" style="ellipse;whiteSpace=wrap;html=1;" vertex="1" parent="1">
          <mxGeometry x="250" y="170" width="120" height="80" as="geometry" />
        </mxCell>
        <mxCell id="52B8nRNnoJWXbUQNNZEJ-5" value="" style="endArrow=classic;html=1;rounded=0;exitX=0.5;exitY=1;exitDx=0;exitDy=0;" edge="1" parent="1" source="52B8nRNnoJWXbUQNNZEJ-1" target="52B8nRNnoJWXbUQNNZEJ-6">
          <mxGeometry width="50" height="50" relative="1" as="geometry">
            <mxPoint x="390" y="350" as="sourcePoint" />
            <mxPoint x="560" y="170" as="targetPoint" />
          </mxGeometry>
        </mxCell>
        <mxCell id="52B8nRNnoJWXbUQNNZEJ-6" value="TodoListHeader" style="ellipse;whiteSpace=wrap;html=1;" vertex="1" parent="1">
          <mxGeometry x="440" y="210" width="120" height="80" as="geometry" />
        </mxCell>
        <mxCell id="52B8nRNnoJWXbUQNNZEJ-7" value="" style="endArrow=classic;html=1;rounded=0;exitX=1;exitY=1;exitDx=0;exitDy=0;" edge="1" parent="1" source="52B8nRNnoJWXbUQNNZEJ-1" target="52B8nRNnoJWXbUQNNZEJ-8">
          <mxGeometry width="50" height="50" relative="1" as="geometry">
            <mxPoint x="390" y="350" as="sourcePoint" />
            <mxPoint x="710" y="220" as="targetPoint" />
          </mxGeometry>
        </mxCell>
        <mxCell id="52B8nRNnoJWXbUQNNZEJ-8" value="TodoListBody" style="ellipse;whiteSpace=wrap;html=1;" vertex="1" parent="1">
          <mxGeometry x="630" y="180" width="120" height="80" as="geometry" />
        </mxCell>
        <mxCell id="52B8nRNnoJWXbUQNNZEJ-9" value="" style="endArrow=classic;html=1;rounded=0;exitX=0.5;exitY=1;exitDx=0;exitDy=0;" edge="1" parent="1" source="52B8nRNnoJWXbUQNNZEJ-8" target="52B8nRNnoJWXbUQNNZEJ-10">
          <mxGeometry width="50" height="50" relative="1" as="geometry">
            <mxPoint x="390" y="350" as="sourcePoint" />
            <mxPoint x="660" y="360" as="targetPoint" />
          </mxGeometry>
        </mxCell>
        <mxCell id="52B8nRNnoJWXbUQNNZEJ-10" value="TodoItem" style="ellipse;whiteSpace=wrap;html=1;" vertex="1" parent="1">
          <mxGeometry x="670" y="350" width="120" height="80" as="geometry" />
        </mxCell>
        <mxCell id="52B8nRNnoJWXbUQNNZEJ-11" value="" style="endArrow=classic;html=1;rounded=0;exitX=0;exitY=1;exitDx=0;exitDy=0;entryX=0.5;entryY=0;entryDx=0;entryDy=0;" edge="1" parent="1" source="52B8nRNnoJWXbUQNNZEJ-4" target="52B8nRNnoJWXbUQNNZEJ-12">
          <mxGeometry width="50" height="50" relative="1" as="geometry">
            <mxPoint x="390" y="350" as="sourcePoint" />
            <mxPoint x="220" y="330" as="targetPoint" />
          </mxGeometry>
        </mxCell>
        <mxCell id="52B8nRNnoJWXbUQNNZEJ-12" value="TodoListItem" style="ellipse;whiteSpace=wrap;html=1;" vertex="1" parent="1">
          <mxGeometry x="150" y="330" width="120" height="80" as="geometry" />
        </mxCell>
        <mxCell id="52B8nRNnoJWXbUQNNZEJ-14" value="" style="endArrow=classic;html=1;rounded=0;exitX=0;exitY=1;exitDx=0;exitDy=0;" edge="1" parent="1" source="52B8nRNnoJWXbUQNNZEJ-12" target="52B8nRNnoJWXbUQNNZEJ-15">
          <mxGeometry width="50" height="50" relative="1" as="geometry">
            <mxPoint x="390" y="350" as="sourcePoint" />
            <mxPoint x="90" y="520" as="targetPoint" />
          </mxGeometry>
        </mxCell>
        <mxCell id="52B8nRNnoJWXbUQNNZEJ-15" value="TodoListItemEditable" style="ellipse;whiteSpace=wrap;html=1;" vertex="1" parent="1">
          <mxGeometry x="30" y="480" width="140" height="80" as="geometry" />
        </mxCell>
        <mxCell id="52B8nRNnoJWXbUQNNZEJ-16" value="" style="endArrow=classic;html=1;rounded=0;exitX=1;exitY=1;exitDx=0;exitDy=0;" edge="1" parent="1" source="52B8nRNnoJWXbUQNNZEJ-12" target="52B8nRNnoJWXbUQNNZEJ-17">
          <mxGeometry width="50" height="50" relative="1" as="geometry">
            <mxPoint x="290" y="430" as="sourcePoint" />
            <mxPoint x="350" y="460" as="targetPoint" />
          </mxGeometry>
        </mxCell>
        <mxCell id="52B8nRNnoJWXbUQNNZEJ-17" value="TodoListItemUneditable" style="ellipse;whiteSpace=wrap;html=1;" vertex="1" parent="1">
          <mxGeometry x="290" y="420" width="160" height="80" as="geometry" />
        </mxCell>
      </root>
    </mxGraphModel>
  </diagram>
</mxfile>
